<svg width="48" height="48" viewBox="0 0 48 48" fill="none" xmlns="http://www.w3.org/2000/svg">
<path id="Vector" d="M13.9 31.2782V31.7782H14.4H18.7V47.0183C8.28396 44.6014 0.5 35.2493 0.5 24.0602C0.5 11.0539 11.0293 0.5 24 0.5C36.9707 0.5 47.5 11.0539 47.5 24.0602C47.5 36.0993 38.5018 46.0133 26.9 47.4414V31.7782H33.6H34.1V31.2782V24.0602V23.5602H33.6H26.9V19.2481C26.9 18.1998 27.7573 17.3421 28.8 17.3421H33.6H34.1V16.8421V9.62406V9.12406H33.6H27.6C22.6907 9.12406 18.7 13.1265 18.7 18.0451V23.5602H14.4H13.9V24.0602V31.2782Z" stroke="white"/>
</svg>
