<svg width="47" height="49" viewBox="0 0 47 49" fill="none" xmlns="http://www.w3.org/2000/svg">
<path fill-rule="evenodd" clip-rule="evenodd" d="M0 10.6794C0 4.78132 4.80233 0 10.7263 0H35.3949C41.3188 0 46.1212 4.78132 46.1212 10.6794V37.5592C46.1212 43.4572 41.3188 48.2385 35.3949 48.2385H10.7263C4.80233 48.2385 0 43.4572 0 37.5592V10.6794ZM11.9731 24.1181C11.9731 17.9701 16.9789 12.9861 23.154 12.9861C29.329 12.9861 34.3349 17.9701 34.3349 24.1181V24.7748C34.3349 30.9228 29.329 35.9068 23.154 35.9068C16.9789 35.9068 11.9731 30.9228 11.9731 24.7748V24.1181ZM36.1495 6.95784C34.4771 6.95784 33.1214 8.30766 33.1214 9.97275C33.1214 11.6378 34.4771 12.9877 36.1495 12.9877C37.8219 12.9877 39.1777 11.6378 39.1777 9.97275C39.1777 8.30766 37.8219 6.95784 36.1495 6.95784Z" fill="#252326"/>
<path d="M16.2214 24.1192C16.2214 20.3587 19.2834 17.3101 23.0604 17.3101C26.8375 17.3101 29.8994 20.3587 29.8994 24.1192C29.8994 27.8797 26.8375 30.9282 23.0604 30.9282C19.2834 30.9282 16.2214 27.8797 16.2214 24.1192Z" fill="#252326"/>
</svg>
