<svg width="56" height="56" viewBox="0 0 56 56" fill="none" xmlns="http://www.w3.org/2000/svg">
<g clip-path="url(#clip0_33_278)" filter="url(#filter0_d_33_278)">
<g filter="url(#filter1_d_33_278)">
<path d="M18.3817 51.1956C18.9354 51.2221 19.4891 51.2455 20.0431 51.2656L20.4957 51.2796C22.1979 51.3211 23.9007 51.339 25.6034 51.3332L18.3817 51.1956ZM18.3817 51.1956C15.8991 51.0789 14.2051 50.6822 12.7164 50.1082L18.3817 51.1956ZM30.3981 5.16889L30.4003 5.16888C32.0974 5.16237 33.7945 5.17941 35.491 5.22L35.9407 5.23623L35.9409 5.23623C36.4451 5.25424 36.943 5.27663 37.5415 5.30353L37.5966 5.306C37.5967 5.30601 37.5969 5.30602 37.5971 5.30603C40.0328 5.42053 41.6726 5.80338 43.1023 6.35774L43.1035 6.35819C44.5812 6.92688 45.8185 7.69209 47.0642 8.93779L47.0673 8.94083C48.2017 10.0557 49.0796 11.4042 49.6401 12.8928L49.6419 12.8973C50.1962 14.327 50.5791 15.9693 50.6936 18.4054C50.7216 19.0258 50.7448 19.5411 50.7633 20.0605C50.7634 20.0607 50.7634 20.0609 50.7634 20.0611L50.7772 20.5081C50.7772 20.5086 50.7772 20.5091 50.7772 20.5096C50.8186 22.2059 50.8364 23.9027 50.8307 25.5996L50.8307 25.6019L50.8331 27.3419V27.3426L50.833 30.3986L50.8331 30.4002C50.8388 32.0979 50.821 33.7955 50.7796 35.4926C50.7796 35.4931 50.7795 35.4936 50.7795 35.494L50.7657 35.941C50.7657 35.9415 50.7657 35.9419 50.7657 35.9423C50.7476 36.4465 50.7253 36.9444 50.6983 37.543L50.6959 37.5967C50.5815 40.0318 50.1942 41.6722 49.6416 43.1031L49.6399 43.1077C49.0814 44.5974 48.2034 45.9468 47.0676 47.061L47.0675 47.0609L47.0613 47.0673C45.9454 48.2016 44.596 49.0796 43.1069 49.6403L43.1023 49.642C41.6725 50.1964 40.0325 50.5793 37.5966 50.6938L37.5417 50.6962C36.9434 50.7231 36.4455 50.7455 35.9414 50.7635C35.9412 50.7635 35.941 50.7635 35.9409 50.7635L35.4939 50.7774C35.4934 50.7774 35.4929 50.7774 35.4924 50.7774C33.7953 50.8187 32.0977 50.8366 30.4001 50.8309L30.3977 50.8309L28.6577 50.8332H28.657L25.6034 50.8332L25.6017 50.8332C23.9041 50.839 22.2065 50.8211 20.5093 50.7797C20.5089 50.7797 20.5084 50.7797 20.5079 50.7797L20.0612 50.7659C20.0608 50.7659 20.0605 50.7659 20.0601 50.7659C19.5085 50.7458 18.957 50.7226 18.4057 50.6961L18.4052 50.6961C15.9702 50.5817 14.3297 50.1944 12.8963 49.6417L12.8922 49.6402C11.4034 49.0809 10.0548 48.2029 8.94095 47.0677L8.94101 47.0677L8.93435 47.0611C7.79868 45.9461 6.91992 44.5967 6.35937 43.1071L6.35757 43.1025C5.80317 41.6727 5.42031 40.0327 5.30583 37.5967C5.27997 37.0457 5.25674 36.4944 5.23614 35.9431L5.22456 35.4936C5.22456 35.4935 5.22456 35.4935 5.22456 35.4935C5.22456 35.4934 5.22455 35.4934 5.22455 35.4933C5.18166 33.7958 5.16226 32.0978 5.16639 30.3998V30.3986L5.16639 25.6012L5.16638 25.5993C5.15989 23.903 5.17693 22.2067 5.2175 20.5109L5.23373 20.0613L5.23373 20.0611C5.2523 19.5413 5.27551 19.0258 5.30352 18.4049C5.41802 15.967 5.80084 14.3293 6.35533 12.8971L6.35535 12.8971L6.35696 12.8928C6.91774 11.404 7.79803 10.0561 8.93585 8.94415L8.93594 8.94423L8.94355 8.93646C10.0567 7.80021 11.4045 6.9207 12.8928 6.35939L12.8928 6.3594L12.8969 6.35783C14.329 5.8034 15.9665 5.4206 18.404 5.30606C18.4044 5.30604 18.4048 5.30602 18.4052 5.306L20.06 5.23628L20.5084 5.22473C20.5084 5.22473 20.5084 5.22473 20.5084 5.22473C20.5085 5.22472 20.5085 5.22472 20.5086 5.22472C22.2053 5.18185 23.9026 5.16245 25.5998 5.16655L25.6008 5.16655L30.3981 5.16889ZM23.4059 23.4037C24.5462 22.2633 26.0667 21.5904 27.6695 21.5084L28.0089 21.5021C28.8724 21.4862 29.7303 21.6425 30.5327 21.9619C31.335 22.2813 32.0657 22.7574 32.6819 23.3623C33.2982 23.9673 33.7878 24.6889 34.1221 25.4852C34.4563 26.2815 34.6285 27.1364 34.6287 28C34.6288 28.8635 34.4569 29.7185 34.1229 30.5149C33.7889 31.3112 33.2996 32.0331 32.6835 32.6382C32.0674 33.2434 31.3369 33.7197 30.5347 34.0393C29.7324 34.359 28.8745 34.5156 28.0111 34.5L28.0111 34.4999H28.0021C26.2781 34.4999 24.6248 33.8151 23.4059 32.5961C22.1869 31.3771 21.5021 29.7238 21.5021 27.9999C21.5021 26.276 22.1869 24.6227 23.4059 23.4037ZM40.2297 19.1638L40.2397 19.1642H40.2497C41.1559 19.1642 42.0249 18.8043 42.6657 18.1635C43.3064 17.5228 43.6664 16.6537 43.6664 15.7476C43.6664 14.8414 43.3064 13.9724 42.6657 13.3316C42.0249 12.6909 41.1559 12.3309 40.2497 12.3309H39.7497V12.3893C39.0491 12.5179 38.4017 12.8633 37.9026 13.3827C37.2912 14.0191 36.9497 14.8674 36.9497 15.7499C36.9497 16.6324 37.2912 17.4807 37.9026 18.117C38.514 18.7534 39.3479 19.1285 40.2297 19.1638ZM28.0033 15.8356C26.3924 15.8132 24.7931 16.1111 23.2982 16.7118C21.8023 17.3129 20.4407 18.2054 19.2926 19.3373C18.1446 20.4692 17.233 21.818 16.6107 23.3054C15.9885 24.7927 15.6681 26.3888 15.6681 28.0011C15.6681 29.6133 15.9885 31.2094 16.6107 32.6968C17.233 34.1841 18.1446 35.5329 19.2926 36.6648C20.4407 37.7967 21.8023 38.6892 23.2982 39.2903C24.7931 39.891 26.3924 40.1889 28.0033 40.1666C31.2288 40.1656 34.322 38.8839 36.6028 36.603C38.8845 34.3213 40.1664 31.2267 40.1664 27.9999C40.1664 24.7731 38.8845 21.6784 36.6028 19.3968C34.3218 17.1157 31.2285 15.8365 28.0033 15.8356Z" stroke="white" shape-rendering="crispEdges"/>
</g>
</g>
<defs>
<filter id="filter1_d_33_278" x="0.665039" y="4.66602" width="54.6689" height="54.668" filterUnits="userSpaceOnUse" color-interpolation-filters="sRGB">
<feFlood flood-opacity="0" result="BackgroundImageFix"/>
<feColorMatrix in="SourceAlpha" type="matrix" values="0 0 0 0 0 0 0 0 0 0 0 0 0 0 0 0 0 0 127 0" result="hardAlpha"/>
<feOffset dy="4"/>
<feGaussianBlur stdDeviation="2"/>
<feComposite in2="hardAlpha" operator="out"/>
<feColorMatrix type="matrix" values="0 0 0 0 0 0 0 0 0 0 0 0 0 0 0 0 0 0 0.25 0"/>
<feBlend mode="normal" in2="BackgroundImageFix" result="effect1_dropShadow_33_278"/>
<feBlend mode="normal" in="SourceGraphic" in2="effect1_dropShadow_33_278" result="shape"/>
</filter>
<clipPath id="clip0_33_278">
<rect width="56" height="56" fill="white"/>
</clipPath>
</defs>
</svg>
