<svg width="53" height="50" viewBox="0 0 53 50" fill="none" xmlns="http://www.w3.org/2000/svg">
<path d="M36.9727 32.0767L35.633 33.409C35.633 33.409 32.4442 36.5738 23.7434 27.9325C15.0426 19.2913 18.2315 16.1265 18.2315 16.1265L19.0736 15.2854C21.1553 13.2206 21.3525 9.90296 19.5358 7.47941L15.8259 2.52937C13.5763 -0.470652 9.23329 -0.867714 6.65692 1.69113L2.03417 6.2794C0.759238 7.55 -0.0946456 9.19119 0.00840927 11.0147C0.273408 15.6824 2.3875 25.7207 14.177 37.4326C26.682 49.8503 38.4155 50.3445 43.212 49.8974C44.7313 49.7562 46.0504 48.9856 47.1133 47.9268L51.2944 43.7738C54.1211 40.9709 53.3261 36.162 49.7103 34.2002L44.0865 31.1443C41.7132 29.8561 38.8277 30.2355 36.9727 32.0767Z" fill="#252326"/>
</svg>
