<svg width="53" height="53" viewBox="0 0 53 53" fill="none" xmlns="http://www.w3.org/2000/svg">
<g id="ic:outline-telegram">
<path id="Vector" d="M27.148 20.2747C25.0007 21.1602 20.7132 23.0167 14.2714 25.8184C13.7396 26.0338 13.2997 26.2557 12.9784 26.4926C12.6704 26.7198 12.3798 27.0282 12.3339 27.438C12.2966 27.7662 12.3882 28.0584 12.5801 28.2982C12.7575 28.5198 13.0034 28.6759 13.2482 28.796C13.6307 28.9835 14.1421 29.1417 14.6696 29.3049C14.7996 29.3452 14.9307 29.3857 15.061 29.427C15.6323 29.6174 16.3003 29.8195 16.9296 29.9776C17.5494 30.1332 18.1682 30.2556 18.6239 30.2684C19.483 30.295 20.3837 29.9206 21.3034 29.2998C24.3176 27.2682 26.5961 25.74 28.1455 24.7145C28.9206 24.2014 29.511 23.8156 29.9191 23.5558C29.9362 23.5449 29.9529 23.5343 29.9693 23.5239C29.8625 23.6352 29.7422 23.7578 29.6104 23.8901C29.0653 24.4372 28.3425 25.13 27.6092 25.822C26.7648 26.6187 25.8982 27.422 25.2871 27.9885C24.8475 28.396 24.5401 28.681 24.4684 28.7526L24.4654 28.7557C24.3147 28.909 24.1606 29.0562 24.0056 29.2034L23.9684 29.2388C23.8276 29.3725 23.6852 29.5078 23.5529 29.6408C23.2731 29.9225 22.9884 30.2422 22.8297 30.6021C22.6559 30.9962 22.637 31.4309 22.8698 31.8754C23.0836 32.2834 23.489 32.6593 24.0615 33.0352C24.9912 33.6477 25.7305 34.1514 26.4798 34.6619L26.4921 34.6703C27.2456 35.1837 28.0102 35.7045 28.9851 36.3471C29.2251 36.5057 29.4536 36.6685 29.6843 36.833C29.7421 36.8741 29.8 36.9154 29.8582 36.9567C30.1442 37.1596 30.4371 37.3627 30.7366 37.5376C31.3384 37.8892 32.0077 38.152 32.7929 38.0843L32.8 38.0837L32.8072 38.0829C33.7266 37.9768 34.4236 37.1148 34.7431 35.4033L34.7431 35.4032C35.4715 31.4963 36.9111 22.9955 37.2448 19.4809L37.2449 19.4809L37.2457 19.4693C37.259 19.2838 37.2521 19.0807 37.2467 18.93L37.2458 18.906C37.2433 18.8365 37.2413 18.78 37.2407 18.7324C37.2402 18.6873 37.2415 18.6702 37.2413 18.6701L37.2522 18.6048L37.2431 18.5325C37.2139 18.2983 37.1181 17.9043 36.754 17.6108M27.148 20.2747C27.1483 20.2746 27.1486 20.2745 27.1489 20.2743L27.3395 20.7366L27.147 20.2751C27.1473 20.275 27.1476 20.2749 27.148 20.2747ZM27.148 20.2747C30.2148 18.995 32.0751 18.2396 33.275 17.8043C34.4663 17.3721 35.0624 17.2332 35.5766 17.2332C35.699 17.2332 35.888 17.2478 36.0914 17.2969C36.2893 17.3447 36.5406 17.4345 36.754 17.6108M36.754 17.6108C36.7527 17.6098 36.7514 17.6088 36.7502 17.6078L36.4379 17.9982L36.7579 17.6141C36.7566 17.613 36.7553 17.6119 36.754 17.6108ZM30.4605 22.9678C30.4628 22.9636 30.4634 22.963 30.4615 22.9662C30.4613 22.9666 30.461 22.9671 30.4605 22.9678ZM4.91699 26.5003C4.91699 14.5865 14.5865 4.91699 26.5003 4.91699C38.4142 4.91699 48.0837 14.5865 48.0837 26.5003C48.0837 38.4142 38.4142 48.0837 26.5003 48.0837C14.5865 48.0837 4.91699 38.4142 4.91699 26.5003Z" stroke="white"/>
</g>
</svg>
