<svg width="51" height="51" viewBox="0 0 51 51" fill="none" xmlns="http://www.w3.org/2000/svg">
<path d="M25.5 0C11.424 0 0 11.424 0 25.5C0 39.576 11.424 51 25.5 51C39.576 51 51 39.576 51 25.5C51 11.424 39.576 0 25.5 0ZM37.332 17.34C36.9495 21.369 35.292 31.161 34.4505 35.6745C34.0935 37.587 33.3795 38.2245 32.7165 38.301C31.2375 38.4285 30.1155 37.332 28.6875 36.3885C26.4435 34.9095 25.1685 33.9915 23.001 32.5635C20.4765 30.906 22.1085 29.988 23.562 28.509C23.9445 28.1265 30.4725 22.185 30.6 21.6495C30.6177 21.5684 30.6154 21.4842 30.5931 21.4042C30.5709 21.3242 30.5295 21.2509 30.4725 21.1905C30.3195 21.063 30.1155 21.114 29.937 21.1395C29.7075 21.1905 26.1375 23.562 19.176 28.254C18.156 28.9425 17.238 29.2995 16.422 29.274C15.504 29.2485 13.77 28.764 12.4695 28.3305C10.863 27.8205 9.6135 27.54 9.7155 26.6475C9.7665 26.1885 10.404 25.7295 11.6025 25.245C19.0485 22.0065 23.9955 19.8645 26.469 18.8445C33.558 15.8865 35.0115 15.3765 35.9805 15.3765C36.1845 15.3765 36.669 15.4275 36.975 15.6825C37.23 15.8865 37.3065 16.167 37.332 16.371C37.3065 16.524 37.3575 16.983 37.332 17.34Z" fill="#252326"/>
</svg>
