<svg width="49" height="49" viewBox="0 0 49 49" fill="none" xmlns="http://www.w3.org/2000/svg">
<g id="Group 167">
<path id="bg" d="M25.5208 48.5H23.4792C17.9322 48.5 13.8169 48.4989 10.6575 48.0757C7.51208 47.6543 5.38979 46.8227 3.78355 45.2164C2.17725 43.6101 1.34569 41.4878 0.924308 38.3475C0.501056 35.1932 0.5 31.0882 0.5 25.5617V23.4792C0.5 17.9323 0.501042 13.8168 0.921822 10.6572C1.34074 7.51149 2.16745 5.38908 3.76367 3.78302C5.36999 2.17698 7.48723 1.34563 10.632 0.924322C13.7914 0.501056 17.9117 0.5 23.4792 0.5H25.5208C31.078 0.5 35.1984 0.501053 38.3604 0.924329C41.5082 1.34571 43.6303 2.17721 45.2365 3.78317C46.8327 5.38927 47.6593 7.51172 48.0782 10.6521C48.499 13.8066 48.5 17.9118 48.5 23.4383V25.5208C48.5 31.0677 48.499 35.1832 48.0782 38.3428C47.6593 41.4884 46.8326 43.6108 45.2365 45.2169C43.6301 46.823 41.5129 47.6544 38.368 48.0757C35.2086 48.4989 31.0883 48.5 25.5208 48.5Z" stroke="white"/>
<path id="vk" d="M21.5048 28.7613V13.9424H26.3047V22.1866V22.7423L26.8574 22.6838C28.7909 22.4789 30.7137 21.3048 32.2958 19.6641C33.7995 18.1047 35.0366 16.0829 35.7182 13.9424H40.52C40.0264 15.9251 39.1598 17.8016 37.9629 19.4739C36.6454 21.3146 34.956 22.8683 33 24.0375L32.2087 24.5106L33.0368 24.9158C35.2227 25.9854 37.1528 27.499 38.7001 29.3563C40.1057 31.0435 41.1663 32.9795 41.8265 35.0574H36.4827C35.8339 33.0351 34.6264 31.2284 32.9931 29.8416C31.2627 28.3722 29.1313 27.4391 26.8662 27.1583L26.3047 27.0886V27.6545V35.0574H26.1078C20.0793 35.0574 15.3982 33.0273 12.1809 29.3507C9.03519 25.7559 7.2406 20.5315 7.01875 13.9424H12.1779C12.5179 23.8793 17.0593 28.3049 20.8852 29.2468L21.5048 29.3993V28.7613Z" stroke="white"/>
</g>
</svg>
